<svg width="1216" height="1216" viewBox="0 0 1216 1216" fill="none" xmlns="http://www.w3.org/2000/svg">
<g clip-path="url(#clip0_107_913)">
<circle opacity="0.4" cx="608" cy="608" r="608" fill="#D9D9D9"/>
<path d="M456.703 850.922C503.5 938.5 697 1018.5 823.706 850.922" stroke="black" stroke-width="40" stroke-linejoin="round"/>
<path d="M349.499 260L308 313.17M412.611 287.666L375.003 346.888M564.34 313.17C576.156 349.193 608.086 427.205 641.285 451.066M641.285 376.282L696.617 451.066M714.34 346.888C731.487 375.562 771.66 436.542 795.176 451.066M779.182 358.559C800.219 378.876 843.504 421.499 848.346 429.452" stroke="black" stroke-width="40" stroke-linejoin="round"/>
<path d="M544 572L644 572" stroke="black" stroke-width="40" stroke-linejoin="round"/>
<path d="M450.651 627.003C440.622 614.553 442.87 591.556 444.167 581.181C447.193 556.973 469.239 553.083 480.91 569.942C492.582 586.801 493.446 606.686 489.556 617.493C485.665 628.3 463.187 642.565 450.651 627.003Z" fill="black" stroke="black" stroke-width="10" stroke-linejoin="round"/>
<path d="M783.642 614.496C776.518 605.415 774.242 591.427 773.994 585.568C773.994 533.204 807.392 555.541 813.701 562.499C820.009 569.456 828.173 585.568 821.865 606.44C815.556 627.313 792.549 625.848 783.642 614.496Z" fill="black"/>
<path d="M541.839 700.586L523.751 487.074C522.467 471.919 510.046 460.123 494.845 459.623L357.241 455.094C339.463 454.509 325.083 469.433 326.328 487.178L341.972 710.108C343.104 726.226 356.797 738.553 372.946 737.989L512.993 733.1C530.135 732.502 543.287 717.678 541.839 700.586Z" stroke="black" stroke-width="40"/>
<path d="M672.037 670.891L649.626 520.419C646.926 502.291 660.971 486 679.299 486H904.667C920.57 486 933.71 498.41 934.618 514.286L942.755 656.503C943.714 673.256 930.744 687.538 913.976 688.194L702.882 696.449C687.585 697.047 674.292 686.032 672.037 670.891Z" stroke="black" stroke-width="40"/>
</g>
<defs>
<clipPath id="clip0_107_913">
<rect width="1216" height="1216" fill="white"/>
</clipPath>
</defs>
</svg>
